# xmcd
#
# Track frame offsets:
#	150
#	3243
#	24010
#	40689
#	46205
#	59441
#	61371
#	72128
#	76937
#	82141
#	82709
#	92806
#	93743
#	105209
#	105793
#	119911
#	121816
#	124510
#	144295
#	160937
#	177466
#	185496
#	193711
#	194590
#	199681
#	200550
#	215611
#	218724
#	224808
#	228176
#	233358
#	234365
#	240126
#	241819
#	246518
#	251398
#	257008
#	268910
#	280949
#	282554
#	286843
#	289119
#	293971
#	314693
#
# Disc length: 4437 seconds
#
# Revision: 0
# Processed by: cddbd v1.5.1PL0 Copyright (c) Steve Scherf et al.
# Submitted via: audiograbber 1.80.04
#
DISCID=7c11532c
DTITLE=Guitarist - October 2000
DYEAR=2000
DGENRE=Blues
TTITLE0=Intro
TTITLE1=King`s X Track
TTITLE2=Nawfel track
TTITLE3=Fender/Gibson Intro
TTITLE4=Fender/Gibson Demo
TTITLE5=Lexicon MPXG2 Intro
TTITLE6=Lexicon MPXG2 Demo
TTITLE7=Epiphone and Aria Intro
TTITLE8=Epiphone and Aria Demo
TTITLE9=Digitech Whammy Pedal Intro
TTITLE10=Digitech Whammy Demo
TTITLE11=Sound Advice #1 Intro
TTITLE12=Sound Advice #1 Track
TTITLE13=Sound Advice #2 Intro
TTITLE14=Sound Advice
TTITLE15=Tunning Notes
TTITLE16=Classic Track Intro
TTITLE17=Classic Track Led Zeppelin "Heartbreaker"
TTITLE18=Classic Track Bass and Drums
TTITLE19=Classic Track Guitar and Drums
TTITLE20=Foo Fighters Style File Intro
TTITLE21=Foo Fighters Style File
TTITLE22=Foo Fighters Style File Solo Intro
TTITLE23=Foo Fighters Style File Solo
TTITLE24=Foo Fighters Backing Track Intro
TTITLE25=Foo Fighters Backing Track 
TTITLE26=Acoustricks Intro
TTITLE27=Acoustricks
TTITLE28=Classical Gas Intro
TTITLE29=Classical Gas
TTITLE30=Solo Bass Intro
TTITLE31=Solo Bass 
TTITLE32=Country Intro
TTITLE33=Country
TTITLE34=Country Backing Track
TTITLE35=Slide Intro
TTITLE36=Slide
TTITLE37=Slide Backing Track
TTITLE38=Advanced Bass Intro
TTITLE39=Advanced Bass
TTITLE40=Blues Headlines Intro
TTITLE41=Blues Headlines
TTITLE42=Blues Headlines Backing Track
TTITLE43=Extra Track Level 42
EXTD=
EXTT0=
EXTT1=
EXTT2=
EXTT3=
EXTT4=
EXTT5=
EXTT6=
EXTT7=
EXTT8=
EXTT9=
EXTT10=
EXTT11=
EXTT12=
EXTT13=
EXTT14=
EXTT15=
EXTT16=
EXTT17=
EXTT18=
EXTT19=
EXTT20=
EXTT21=
EXTT22=
EXTT23=
EXTT24=
EXTT25=
EXTT26=
EXTT27=
EXTT28=
EXTT29=
EXTT30=
EXTT31=
EXTT32=
EXTT33=
EXTT34=
EXTT35=
EXTT36=
EXTT37=
EXTT38=
EXTT39=
EXTT40=
EXTT41=
EXTT42=
EXTT43=
PLAYORDER=
